<svg width="256" height="256" viewBox="0 0 256 256" xmlns="http://www.w3.org/2000/svg" preserveAspectRatio="xMidYMid">
    <defs>
        <linearGradient id="grad1" x1="0%" y1="0%" x2="100%" y2="100%">
            <stop offset="0%" style="stop-color:#387EB8;stop-opacity:1" />
            <stop offset="100%" style="stop-color:#1F496A;stop-opacity:1" />
        </linearGradient>
        <linearGradient id="grad2" x1="0%" y1="0%" x2="100%" y2="100%">
            <stop offset="0%" style="stop-color:#FFE052;stop-opacity:1" />
            <stop offset="100%" style="stop-color:#FFC331;stop-opacity:1" />
        </linearGradient>
        <filter id="dropShadow" height="130%">
            <feGaussianBlur in="SourceAlpha" stdDeviation="3"/>
            <feOffset dx="2" dy="2" result="offsetblur"/>
            <feFlood flood-color="rgba(0,0,0,0.5)"/>
            <feComposite in2="offsetblur" operator="in"/>
            <feMerge>
                <feMergeNode/>
                <feMergeNode in="SourceGraphic"/>
            </feMerge>
        </filter>
    </defs>
    <g filter="url(#dropShadow)" transform="scale(0.9) translate(15,15)">
        <path d="M126.9,25.5c-34.3,0-32.1,14.9-32.1,14.9v15.5h33.2v4.6H82.1c-33.2,0-45.7,20.6-45.7,46.9c0,26.3,11.4,45.7,44.6,45.7 h8v-16c0-21.7,16-24,24-24h35.5c9.1,0,11.4-11.4,11.4-11.4V69C160,41.5,137.2,25.5,126.9,25.5z M114.3,48.4c5.7,0,10.3,4.6,10.3,10.3 c0,5.7-4.6,10.3-10.3,10.3c-5.7,0-10.3-4.6-10.3-10.3C104,53,108.6,48.4,114.3,48.4z" fill="url(#grad1)"/>
        <path d="M129.4,228.6c34.3,0,32.1-14.9,32.1-14.9v-15.5h-33.2v-4.6h45.8c33.2,0,45.7-20.6,45.7-46.9c0-26.3-11.4-45.7-44.6-45.7 h-8v16c0,21.7-16,24-24,24h-35.5c-9.1,0-11.4,11.4-11.4,11.4v31.9C108.1,212.6,131,228.6,129.4,228.6z M142,205.7 c-5.7,0-10.3-4.6-10.3-10.3c0-5.7,4.6-10.3,10.3-10.3c5.7,0,10.3,4.6,10.3,10.3C152.3,201.2,147.7,205.7,142,205.7z" fill="url(#grad2)"/>
    </g>
</svg>
